# xmcd
# 
# Track frame offsets:
#     150
#     22372
#     27567
#     50332
#     66485
#     93650
#     111322
#     134610
#     167627
#     188180
#     205440
#     221750
#     240927
#     259882
#     283985
#     307307
# 
# Disc length: 4379
# 
# Revision: 5
# Processed by: cddbd v1.5.2PL0 Copyright (c) Steve Scherf et al.
# Submitted via: BonkEnc v1.0.6
# 
DISCID=0c111910
DTITLE=Gary Moore - Greatest Hits
DYEAR=1990
DGENRE=Blues-Rock
TTITLE0=She's Got You
TTITLE1=Dirty Fingers
TTITLE2=Bad News
TTITLE3=Hot Gossip
TTITLE4=I Look At You
TTITLE5=The Woman In Love
TTITLE6=Nuclear Attack
TTITLE7=Parisiene Walkway
TTITLE8=Dancin'
TTITLE9=Kidnapped
TTITLE10=Don't Let Me Be Misunderstood
TTITLE11=You Kissed Me Sweetly
TTITLE12=You
TTITLE13=Back On The Street
TTITLE14=White Knuckles/Rockin' And Rollin'
TTITLE15=Run To Your Mama
EXTD=YEAR: 1990
EXTT0=
EXTT1=
EXTT2=
EXTT3=
EXTT4=
EXTT5=
EXTT6=
EXTT7=
EXTT8=
EXTT9=
EXTT10=
EXTT11=
EXTT12=
EXTT13=
EXTT14=
EXTT15=
PLAYORDER=
